<?xml version="1.0" encoding="UTF-8"?>
<svg xmlns="http://www.w3.org/2000/svg" xmlns:xlink="http://www.w3.org/1999/xlink" width="200px" height="200px" viewBox="0 0 200 200" version="1.1">
<defs>
<clipPath id="clip1">
  <path d="M 96 54.679688 L 117 54.679688 L 117 64.535156 L 96 64.535156 Z M 96 54.679688 "/>
</clipPath>
<clipPath id="clip2">
  <path d="M 88.535156 102.398438 L 109.867188 102.398438 L 109.867188 110.28125 L 88.535156 110.28125 Z M 88.535156 102.398438 "/>
</clipPath>
<clipPath id="clip3">
  <path d="M 109.332031 69.332031 L 129.199219 69.332031 L 129.199219 98.667969 L 109.332031 98.667969 Z M 109.332031 69.332031 "/>
</clipPath>
<clipPath id="clip4">
  <path d="M 81.601562 54.679688 L 108.800781 54.679688 L 108.800781 77 L 81.601562 77 Z M 81.601562 54.679688 "/>
</clipPath>
</defs>
<g id="surface1">
<path style=" stroke:none;fill-rule:nonzero;fill:rgb(78.823529%,66.27451%,28.235294%);fill-opacity:1;" d="M 71.574219 76.003906 L 83.046875 60.332031 C 83.542969 59.652344 84.605469 60.1875 84.359375 60.988281 L 79.195312 77.605469 C 79.085938 77.953125 78.738281 78.171875 78.371094 78.117188 L 72.066406 77.175781 C 71.511719 77.089844 71.242188 76.453125 71.574219 76.003906 Z M 71.574219 76.003906 "/>
<g clip-path="url(#clip1)" clip-rule="nonzero">
<path style=" stroke:none;fill-rule:nonzero;fill:rgb(78.823529%,66.27451%,28.235294%);fill-opacity:1;" d="M 97.007812 54.828125 L 116.246094 58.234375 C 116.8125 58.332031 117.054688 59.011719 116.679688 59.445312 L 112.554688 64.269531 C 112.328125 64.535156 111.941406 64.605469 111.632812 64.441406 L 96.519531 56.210938 C 95.777344 55.808594 96.175781 54.679688 97.007812 54.828125 Z M 97.007812 54.828125 "/>
</g>
<path style=" stroke:none;fill-rule:nonzero;fill:rgb(78.823529%,66.27451%,28.235294%);fill-opacity:1;" d="M 71.800781 79.386719 L 78.082031 80.324219 C 78.4375 80.378906 78.703125 80.679688 78.714844 81.039062 L 79.171875 98.199219 C 79.195312 99.039062 78.019531 99.261719 77.730469 98.476562 L 70.992188 80.378906 C 70.796875 79.847656 71.242188 79.300781 71.800781 79.386719 Z M 71.800781 79.386719 "/>
<path style=" stroke:none;fill-rule:nonzero;fill:rgb(78.823529%,66.27451%,28.235294%);fill-opacity:1;" d="M 114.347656 65.605469 L 118.527344 60.71875 C 118.882812 60.300781 119.558594 60.402344 119.777344 60.90625 L 127.390625 78.5 C 127.722656 79.265625 126.726562 79.910156 126.160156 79.296875 L 114.367188 66.589844 C 114.109375 66.316406 114.101562 65.890625 114.347656 65.605469 Z M 114.347656 65.605469 "/>
<path style=" stroke:none;fill-rule:nonzero;fill:rgb(78.823529%,66.27451%,28.235294%);fill-opacity:1;" d="M 109.871094 101.414062 L 124.195312 92.195312 C 124.902344 91.738281 125.707031 92.621094 125.179688 93.28125 L 113.042969 108.4375 C 112.679688 108.890625 111.960938 108.773438 111.761719 108.230469 L 109.578125 102.292969 C 109.457031 101.964844 109.582031 101.601562 109.871094 101.414062 Z M 109.871094 101.414062 "/>
<g clip-path="url(#clip2)" clip-rule="nonzero">
<path style=" stroke:none;fill-rule:nonzero;fill:rgb(78.823529%,66.27451%,28.235294%);fill-opacity:1;" d="M 89.414062 106.320312 L 106.671875 102.703125 C 107.035156 102.625 107.394531 102.828125 107.523438 103.171875 L 109.742188 109.203125 C 109.933594 109.726562 109.503906 110.265625 108.953125 110.195312 L 89.476562 107.785156 C 88.640625 107.679688 88.589844 106.492188 89.414062 106.320312 Z M 89.414062 106.320312 "/>
</g>
<path style=" stroke:none;fill-rule:nonzero;fill:rgb(78.823529%,66.27451%,28.235294%);fill-opacity:1;" d="M 82.207031 82.734375 L 104.15625 99.707031 C 104.660156 100.09375 104.476562 100.886719 103.855469 101.019531 L 82.476562 105.503906 C 82.023438 105.597656 81.589844 105.257812 81.578125 104.796875 L 81.007812 83.339844 C 80.992188 82.714844 81.710938 82.351562 82.207031 82.734375 Z M 82.207031 82.734375 "/>
<path style=" stroke:none;fill-rule:nonzero;fill:rgb(78.823529%,66.27451%,28.235294%);fill-opacity:1;" d="M 83.179688 79.261719 L 110.023438 68.226562 C 110.550781 68.011719 111.117188 68.441406 111.042969 69.007812 L 107.324219 97.921875 C 107.25 98.492188 106.585938 98.765625 106.128906 98.414062 L 83.007812 80.535156 C 82.554688 80.183594 82.652344 79.480469 83.179688 79.261719 Z M 83.179688 79.261719 "/>
<g clip-path="url(#clip3)" clip-rule="nonzero">
<path style=" stroke:none;fill-rule:nonzero;fill:rgb(78.823529%,66.27451%,28.235294%);fill-opacity:1;" d="M 114.410156 69.917969 L 128.871094 85.5 C 129.1875 85.835938 129.117188 86.378906 128.730469 86.628906 L 110.773438 98.183594 C 110.242188 98.523438 109.554688 98.089844 109.632812 97.464844 L 113.125 70.324219 C 113.207031 69.699219 113.980469 69.453125 114.410156 69.917969 Z M 114.410156 69.917969 "/>
</g>
<g clip-path="url(#clip4)" clip-rule="nonzero">
<path style=" stroke:none;fill-rule:nonzero;fill:rgb(78.823529%,66.27451%,28.235294%);fill-opacity:1;" d="M 89.511719 54.929688 L 108.363281 65.195312 C 108.914062 65.492188 108.867188 66.292969 108.289062 66.53125 L 83.019531 76.921875 C 82.4375 77.160156 81.839844 76.617188 82.023438 76.015625 L 88.445312 55.363281 C 88.582031 54.914062 89.097656 54.707031 89.511719 54.929688 Z M 89.511719 54.929688 "/>
</g>
<path style=" stroke:none;fill-rule:nonzero;fill:rgb(78.823529%,66.27451%,28.235294%);fill-opacity:1;" d="M 79.390625 137.242188 C 79.410156 137.761719 79.734375 138.257812 80.679688 138.257812 C 81.578125 138.257812 81.929688 137.894531 81.929688 137.324219 C 81.929688 136.824219 81.636719 136.550781 81.050781 136.484375 L 80.453125 136.410156 C 80.214844 136.382812 80.113281 136.257812 80.113281 136.089844 C 80.113281 135.867188 80.300781 135.722656 80.648438 135.722656 C 81.03125 135.722656 81.222656 135.898438 81.257812 136.164062 L 81.898438 136.164062 C 81.863281 135.65625 81.511719 135.242188 80.648438 135.242188 C 79.84375 135.242188 79.453125 135.613281 79.453125 136.128906 C 79.453125 136.605469 79.738281 136.886719 80.25 136.945312 L 80.882812 137.027344 C 81.140625 137.0625 81.269531 137.175781 81.269531 137.390625 C 81.269531 137.621094 81.128906 137.773438 80.691406 137.773438 C 80.234375 137.773438 80.046875 137.546875 80.027344 137.242188 Z M 79.390625 137.242188 "/>
<path style=" stroke:none;fill-rule:nonzero;fill:rgb(78.823529%,66.27451%,28.235294%);fill-opacity:1;" d="M 85.71875 138.257812 C 86.820312 138.257812 87.230469 137.542969 87.230469 136.75 C 87.230469 135.972656 86.820312 135.242188 85.71875 135.242188 C 84.617188 135.242188 84.203125 135.96875 84.203125 136.75 C 84.203125 137.546875 84.617188 138.257812 85.71875 138.257812 Z M 84.890625 136.75 C 84.890625 136.117188 85.085938 135.777344 85.71875 135.777344 C 86.351562 135.777344 86.546875 136.117188 86.546875 136.75 C 86.546875 137.378906 86.351562 137.71875 85.71875 137.71875 C 85.085938 137.71875 84.890625 137.378906 84.890625 136.75 Z M 84.890625 136.75 "/>
<path style=" stroke:none;fill-rule:nonzero;fill:rgb(78.823529%,66.27451%,28.235294%);fill-opacity:1;" d="M 90.238281 137.664062 L 90.238281 135.3125 L 89.578125 135.3125 L 89.578125 138.1875 L 91.582031 138.1875 L 91.582031 137.664062 Z M 90.238281 137.664062 "/>
<path style=" stroke:none;fill-rule:nonzero;fill:rgb(78.823529%,66.27451%,28.235294%);fill-opacity:1;" d="M 93.804688 137.113281 C 93.804688 137.863281 94.234375 138.253906 95.09375 138.253906 C 95.957031 138.253906 96.382812 137.855469 96.382812 137.113281 L 96.382812 135.3125 L 95.730469 135.3125 L 95.730469 137.019531 C 95.730469 137.578125 95.519531 137.71875 95.09375 137.71875 C 94.671875 137.71875 94.460938 137.578125 94.460938 137.019531 L 94.460938 135.3125 L 93.804688 135.3125 Z M 93.804688 137.113281 "/>
<path style=" stroke:none;fill-rule:nonzero;fill:rgb(78.823529%,66.27451%,28.235294%);fill-opacity:1;" d="M 101.214844 135.3125 L 98.664062 135.3125 L 98.664062 135.832031 L 99.609375 135.832031 L 99.609375 138.1875 L 100.265625 138.1875 L 100.265625 135.832031 L 101.214844 135.832031 Z M 101.214844 135.3125 "/>
<path style=" stroke:none;fill-rule:nonzero;fill:rgb(78.823529%,66.27451%,28.235294%);fill-opacity:1;" d="M 105.226562 135.832031 L 105.226562 135.3125 L 103.507812 135.3125 L 103.507812 135.832031 L 104.039062 135.832031 L 104.039062 137.664062 L 103.507812 137.664062 L 103.507812 138.1875 L 105.226562 138.1875 L 105.226562 137.664062 L 104.695312 137.664062 L 104.695312 135.832031 Z M 105.226562 135.832031 "/>
<path style=" stroke:none;fill-rule:nonzero;fill:rgb(78.823529%,66.27451%,28.235294%);fill-opacity:1;" d="M 109.089844 138.257812 C 110.191406 138.257812 110.601562 137.542969 110.601562 136.75 C 110.601562 135.972656 110.191406 135.242188 109.089844 135.242188 C 107.988281 135.242188 107.574219 135.96875 107.574219 136.75 C 107.574219 137.546875 107.988281 138.257812 109.089844 138.257812 Z M 108.261719 136.75 C 108.261719 136.117188 108.457031 135.777344 109.089844 135.777344 C 109.71875 135.777344 109.917969 136.117188 109.917969 136.75 C 109.917969 137.378906 109.71875 137.71875 109.089844 137.71875 C 108.457031 137.71875 108.261719 137.378906 108.261719 136.75 Z M 108.261719 136.75 "/>
<path style=" stroke:none;fill-rule:nonzero;fill:rgb(78.823529%,66.27451%,28.235294%);fill-opacity:1;" d="M 115.097656 135.3125 L 115.097656 137.71875 C 115.050781 137.574219 114.996094 137.425781 114.941406 137.304688 L 114.035156 135.3125 L 112.949219 135.3125 L 112.949219 138.1875 L 113.578125 138.1875 L 113.578125 135.785156 C 113.621094 135.929688 113.679688 136.078125 113.742188 136.222656 L 114.640625 138.1875 L 115.730469 138.1875 L 115.730469 135.3125 Z M 115.097656 135.3125 "/>
<path style=" stroke:none;fill-rule:nonzero;fill:rgb(78.823529%,66.27451%,28.235294%);fill-opacity:1;" d="M 118.050781 137.242188 C 118.070312 137.761719 118.398438 138.257812 119.34375 138.257812 C 120.242188 138.257812 120.589844 137.894531 120.589844 137.324219 C 120.589844 136.824219 120.296875 136.550781 119.714844 136.484375 L 119.113281 136.410156 C 118.875 136.382812 118.777344 136.257812 118.777344 136.089844 C 118.777344 135.867188 118.960938 135.722656 119.3125 135.722656 C 119.691406 135.722656 119.882812 135.898438 119.917969 136.164062 L 120.5625 136.164062 C 120.527344 135.65625 120.171875 135.242188 119.3125 135.242188 C 118.503906 135.242188 118.117188 135.613281 118.117188 136.128906 C 118.117188 136.605469 118.402344 136.886719 118.910156 136.945312 L 119.542969 137.027344 C 119.800781 137.0625 119.929688 137.175781 119.929688 137.390625 C 119.929688 137.621094 119.789062 137.773438 119.351562 137.773438 C 118.898438 137.773438 118.707031 137.546875 118.691406 137.242188 Z M 118.050781 137.242188 "/>
<path style=" stroke:none;fill-rule:nonzero;fill:rgb(0%,0%,0%);fill-opacity:1;" d="M 34.898438 129.886719 C 39.402344 129.886719 41.078125 126.957031 41.078125 123.726562 C 41.078125 120.550781 39.402344 117.546875 34.898438 117.546875 C 30.398438 117.546875 28.703125 120.53125 28.703125 123.726562 C 28.703125 126.976562 30.398438 129.886719 34.898438 129.886719 Z M 31.507812 123.726562 C 31.507812 121.132812 32.320312 119.738281 34.898438 119.738281 C 37.476562 119.738281 38.289062 121.132812 38.289062 123.726562 C 38.289062 126.289062 37.476562 127.679688 34.898438 127.679688 C 32.320312 127.679688 31.507812 126.289062 31.507812 123.726562 Z M 31.507812 123.726562 "/>
<path style=" stroke:none;fill-rule:nonzero;fill:rgb(0%,0%,0%);fill-opacity:1;" d="M 53.699219 129.585938 L 56.398438 129.585938 L 52.269531 117.847656 L 48.171875 117.847656 L 44.042969 129.585938 L 46.742188 129.585938 L 47.589844 127.1875 L 52.847656 127.1875 Z M 48.3125 125.121094 L 50.21875 119.703125 L 52.125 125.121094 Z M 48.3125 125.121094 "/>
<path style=" stroke:none;fill-rule:nonzero;fill:rgb(0%,0%,0%);fill-opacity:1;" d="M 65.929688 122.808594 L 70.464844 117.847656 L 66.972656 117.847656 L 62.257812 123.375 L 62.257812 117.847656 L 59.574219 117.847656 L 59.574219 129.585938 L 62.257812 129.585938 L 62.257812 126.816406 L 64.128906 124.769531 L 67.34375 129.585938 L 70.554688 129.585938 L 70.554688 129.445312 Z M 65.929688 122.808594 "/>
<path style=" stroke:none;fill-rule:nonzero;fill:rgb(0%,0%,0%);fill-opacity:1;" d="M 89.828125 117.847656 L 79.414062 117.847656 L 79.414062 119.964844 L 83.277344 119.964844 L 83.277344 129.585938 L 85.960938 129.585938 L 85.960938 119.964844 L 89.828125 119.964844 Z M 89.828125 117.847656 "/>
<path style=" stroke:none;fill-rule:nonzero;fill:rgb(0%,0%,0%);fill-opacity:1;" d="M 102.835938 126.726562 C 102.835938 125.035156 101.902344 124.433594 100.699219 124.132812 C 102.09375 123.832031 103.152344 122.722656 103.152344 121.0625 C 103.152344 119.152344 101.867188 117.847656 99.269531 117.847656 L 93.074219 117.847656 L 93.074219 129.585938 L 95.777344 129.585938 L 95.777344 125.050781 L 98.195312 125.050781 C 99.359375 125.050781 100.152344 125.617188 100.152344 126.941406 L 100.152344 127.558594 C 100.152344 128.527344 100.242188 129.164062 100.382812 129.585938 L 103.066406 129.585938 C 102.941406 129.023438 102.835938 128.492188 102.835938 127.523438 Z M 98.667969 123.128906 L 95.777344 123.128906 L 95.777344 119.929688 L 98.667969 119.929688 C 99.835938 119.929688 100.347656 120.460938 100.347656 121.449219 C 100.347656 122.542969 99.886719 123.128906 98.667969 123.128906 Z M 98.667969 123.128906 "/>
<path style=" stroke:none;fill-rule:nonzero;fill:rgb(0%,0%,0%);fill-opacity:1;" d="M 106.578125 125.191406 C 106.578125 128.265625 108.34375 129.871094 111.855469 129.871094 C 115.367188 129.871094 117.113281 128.246094 117.113281 125.191406 L 117.113281 117.847656 L 114.449219 117.847656 L 114.449219 124.820312 C 114.449219 127.097656 113.585938 127.679688 111.855469 127.679688 C 110.125 127.679688 109.261719 127.097656 109.261719 124.820312 L 109.261719 117.847656 L 106.578125 117.847656 Z M 106.578125 125.191406 "/>
<path style=" stroke:none;fill-rule:nonzero;fill:rgb(0%,0%,0%);fill-opacity:1;" d="M 120.414062 125.722656 C 120.503906 127.859375 121.828125 129.886719 125.695312 129.886719 C 129.363281 129.886719 130.796875 128.386719 130.796875 126.074219 C 130.796875 124.027344 129.59375 122.898438 127.210938 122.632812 L 124.757812 122.332031 C 123.789062 122.226562 123.382812 121.714844 123.382812 121.027344 C 123.382812 120.109375 124.140625 119.523438 125.570312 119.523438 C 127.121094 119.523438 127.898438 120.230469 128.042969 121.328125 L 130.671875 121.328125 C 130.527344 119.242188 129.082031 117.546875 125.570312 117.546875 C 122.269531 117.546875 120.679688 119.066406 120.679688 121.183594 C 120.679688 123.128906 121.847656 124.273438 123.929688 124.519531 L 126.523438 124.855469 C 127.566406 124.996094 128.09375 125.457031 128.09375 126.339844 C 128.09375 127.273438 127.511719 127.894531 125.730469 127.894531 C 123.875 127.894531 123.097656 126.976562 123.027344 125.722656 Z M 120.414062 125.722656 "/>
<path style=" stroke:none;fill-rule:nonzero;fill:rgb(0%,0%,0%);fill-opacity:1;" d="M 144.15625 117.847656 L 133.742188 117.847656 L 133.742188 119.964844 L 137.605469 119.964844 L 137.605469 129.585938 L 140.289062 129.585938 L 140.289062 119.964844 L 144.15625 119.964844 Z M 144.15625 117.847656 "/>
<path style=" stroke:none;fill-rule:nonzero;fill:rgb(0%,0%,0%);fill-opacity:1;" d="M 150.085938 127.453125 L 150.085938 124.589844 L 156.085938 124.589844 L 156.085938 122.597656 L 150.085938 122.597656 L 150.085938 119.964844 L 156.617188 119.964844 L 156.617188 117.847656 L 147.402344 117.847656 L 147.402344 129.585938 L 156.671875 129.585938 L 156.671875 127.453125 Z M 150.085938 127.453125 "/>
<path style=" stroke:none;fill-rule:nonzero;fill:rgb(0%,0%,0%);fill-opacity:1;" d="M 165.867188 117.847656 L 160.214844 117.847656 L 160.214844 129.585938 L 165.867188 129.585938 C 169.679688 129.585938 171.40625 126.796875 171.40625 123.691406 C 171.40625 120.601562 169.679688 117.847656 165.867188 117.847656 Z M 165.265625 127.453125 L 162.898438 127.453125 L 162.898438 119.964844 L 165.265625 119.964844 C 167.648438 119.964844 168.621094 121.183594 168.621094 123.691406 C 168.621094 126.179688 167.667969 127.453125 165.265625 127.453125 Z M 165.265625 127.453125 "/>
</g>
</svg>
