<svg xmlns="http://www.w3.org/2000/svg" xmlns:xlink="http://www.w3.org/1999/xlink" width="500" zoomAndPan="magnify" viewBox="0 0 375 374.999991" height="500" preserveAspectRatio="xMidYMid meet" version="1.0"><defs><g/><clipPath id="7ba31d383c"><path d="M 180 102.527344 L 220 102.527344 L 220 121 L 180 121 Z M 180 102.527344 " clip-rule="nonzero"/></clipPath><clipPath id="f685bc3370"><path d="M 166 192 L 206 192 L 206 206.777344 L 166 206.777344 Z M 166 192 " clip-rule="nonzero"/></clipPath><clipPath id="8838f8100d"><path d="M 205 130 L 242.25 130 L 242.25 185 L 205 185 Z M 205 130 " clip-rule="nonzero"/></clipPath><clipPath id="ac3b53c270"><path d="M 153 102.527344 L 204 102.527344 L 204 145 L 153 145 Z M 153 102.527344 " clip-rule="nonzero"/></clipPath></defs><path fill="#c9a948" d="M 134.199219 142.507812 L 155.710938 113.121094 C 156.640625 111.851562 158.636719 112.851562 158.171875 114.355469 L 148.492188 145.507812 C 148.285156 146.164062 147.632812 146.570312 146.949219 146.46875 L 135.121094 144.703125 C 134.082031 144.546875 133.582031 143.351562 134.199219 142.507812 Z M 134.199219 142.507812 " fill-opacity="1" fill-rule="nonzero"/><g clip-path="url(#7ba31d383c)"><path fill="#c9a948" d="M 181.886719 102.804688 L 217.960938 109.1875 C 219.023438 109.375 219.476562 110.644531 218.777344 111.460938 L 211.042969 120.503906 C 210.613281 121.003906 209.890625 121.136719 209.3125 120.824219 L 180.976562 105.394531 C 179.585938 104.640625 180.332031 102.527344 181.886719 102.804688 Z M 181.886719 102.804688 " fill-opacity="1" fill-rule="nonzero"/></g><path fill="#c9a948" d="M 134.625 148.847656 L 146.402344 150.609375 C 147.070312 150.707031 147.570312 151.273438 147.589844 151.945312 L 148.445312 184.121094 C 148.488281 185.695312 146.289062 186.117188 145.742188 184.640625 L 133.113281 150.707031 C 132.742188 149.714844 133.578125 148.691406 134.625 148.847656 Z M 134.625 148.847656 " fill-opacity="1" fill-rule="nonzero"/><path fill="#c9a948" d="M 214.398438 123.011719 L 222.238281 113.847656 C 222.90625 113.0625 224.171875 113.253906 224.582031 114.199219 L 238.855469 147.1875 C 239.476562 148.625 237.613281 149.832031 236.546875 148.683594 L 214.4375 124.859375 C 213.957031 124.339844 213.941406 123.546875 214.398438 123.011719 Z M 214.398438 123.011719 " fill-opacity="1" fill-rule="nonzero"/><path fill="#c9a948" d="M 206.011719 190.148438 L 232.867188 172.863281 C 234.195312 172.007812 235.703125 173.667969 234.714844 174.902344 L 211.953125 203.320312 C 211.273438 204.167969 209.925781 203.949219 209.550781 202.933594 L 205.457031 191.796875 C 205.234375 191.1875 205.464844 190.503906 206.011719 190.148438 Z M 206.011719 190.148438 " fill-opacity="1" fill-rule="nonzero"/><g clip-path="url(#f685bc3370)"><path fill="#c9a948" d="M 167.648438 199.351562 L 200.007812 192.566406 C 200.6875 192.421875 201.367188 192.800781 201.605469 193.449219 L 205.765625 204.757812 C 206.125 205.738281 205.320312 206.746094 204.285156 206.617188 L 167.765625 202.09375 C 166.199219 201.902344 166.105469 199.675781 167.648438 199.351562 Z M 167.648438 199.351562 " fill-opacity="1" fill-rule="nonzero"/></g><path fill="#c9a948" d="M 154.140625 155.125 L 195.292969 186.949219 C 196.234375 187.675781 195.890625 189.164062 194.726562 189.410156 L 154.644531 197.816406 C 153.792969 197.992188 152.984375 197.359375 152.960938 196.492188 L 151.890625 156.261719 C 151.859375 155.089844 153.210938 154.40625 154.140625 155.125 Z M 154.140625 155.125 " fill-opacity="1" fill-rule="nonzero"/><path fill="#c9a948" d="M 155.964844 148.617188 L 206.292969 127.925781 C 207.28125 127.519531 208.34375 128.328125 208.207031 129.390625 L 201.234375 183.605469 C 201.09375 184.671875 199.847656 185.1875 198.992188 184.527344 L 155.640625 151.003906 C 154.792969 150.347656 154.972656 149.027344 155.964844 148.617188 Z M 155.964844 148.617188 " fill-opacity="1" fill-rule="nonzero"/><g clip-path="url(#8838f8100d)"><path fill="#c9a948" d="M 214.519531 131.09375 L 241.636719 160.3125 C 242.226562 160.945312 242.097656 161.957031 241.371094 162.425781 L 207.703125 184.09375 C 206.707031 184.734375 205.414062 183.921875 205.5625 182.746094 L 212.109375 131.859375 C 212.261719 130.6875 213.714844 130.226562 214.519531 131.09375 Z M 214.519531 131.09375 " fill-opacity="1" fill-rule="nonzero"/></g><g clip-path="url(#ac3b53c270)"><path fill="#c9a948" d="M 167.835938 102.996094 L 203.179688 122.238281 C 204.210938 122.800781 204.128906 124.300781 203.042969 124.746094 L 155.664062 144.226562 C 154.570312 144.675781 153.449219 143.65625 153.796875 142.53125 L 165.832031 103.804688 C 166.09375 102.964844 167.058594 102.574219 167.835938 102.996094 Z M 167.835938 102.996094 " fill-opacity="1" fill-rule="nonzero"/></g><g fill="#c9a948" fill-opacity="1"><g transform="translate(148.539201, 259.099748)"><g><path d="M 0.316406 -1.773438 C 0.355469 -0.792969 0.964844 0.136719 2.738281 0.136719 C 4.421875 0.136719 5.078125 -0.550781 5.078125 -1.613281 C 5.078125 -2.550781 4.527344 -3.070312 3.433594 -3.191406 L 2.308594 -3.328125 C 1.863281 -3.378906 1.675781 -3.613281 1.675781 -3.929688 C 1.675781 -4.351562 2.023438 -4.617188 2.679688 -4.617188 C 3.394531 -4.617188 3.75 -4.292969 3.816406 -3.792969 L 5.023438 -3.792969 C 4.957031 -4.746094 4.292969 -5.523438 2.679688 -5.523438 C 1.167969 -5.523438 0.4375 -4.828125 0.4375 -3.855469 C 0.4375 -2.964844 0.972656 -2.4375 1.929688 -2.324219 L 3.117188 -2.171875 C 3.597656 -2.105469 3.839844 -1.894531 3.839844 -1.492188 C 3.839844 -1.0625 3.574219 -0.777344 2.753906 -0.777344 C 1.902344 -0.777344 1.546875 -1.199219 1.515625 -1.773438 Z M 0.316406 -1.773438 "/></g></g></g><g fill="#c9a948" fill-opacity="1"><g transform="translate(157.515382, 259.099748)"><g><path d="M 3.207031 0.136719 C 5.273438 0.136719 6.042969 -1.207031 6.042969 -2.691406 C 6.042969 -4.148438 5.273438 -5.523438 3.207031 -5.523438 C 1.140625 -5.523438 0.363281 -4.15625 0.363281 -2.691406 C 0.363281 -1.199219 1.140625 0.136719 3.207031 0.136719 Z M 1.652344 -2.691406 C 1.652344 -3.878906 2.023438 -4.519531 3.207031 -4.519531 C 4.390625 -4.519531 4.761719 -3.878906 4.761719 -2.691406 C 4.761719 -1.515625 4.390625 -0.875 3.207031 -0.875 C 2.023438 -0.875 1.652344 -1.515625 1.652344 -2.691406 Z M 1.652344 -2.691406 "/></g></g></g><g fill="#c9a948" fill-opacity="1"><g transform="translate(167.488022, 259.099748)"><g><path d="M 1.710938 -0.980469 L 1.710938 -5.386719 L 0.46875 -5.386719 L 0.46875 0 L 4.230469 0 L 4.230469 -0.980469 Z M 1.710938 -0.980469 "/></g></g></g><g fill="#c9a948" fill-opacity="1"><g transform="translate(175.435348, 259.099748)"><g><path d="M 0.445312 -2.015625 C 0.445312 -0.609375 1.253906 0.128906 2.867188 0.128906 C 4.480469 0.128906 5.28125 -0.617188 5.28125 -2.015625 L 5.28125 -5.386719 L 4.058594 -5.386719 L 4.058594 -2.1875 C 4.058594 -1.140625 3.660156 -0.875 2.867188 -0.875 C 2.074219 -0.875 1.675781 -1.140625 1.675781 -2.1875 L 1.675781 -5.386719 L 0.445312 -5.386719 Z M 0.445312 -2.015625 "/></g></g></g><g fill="#c9a948" fill-opacity="1"><g transform="translate(184.727477, 259.099748)"><g><path d="M 5.046875 -5.386719 L 0.265625 -5.386719 L 0.265625 -4.414062 L 2.042969 -4.414062 L 2.042969 0 L 3.273438 0 L 3.273438 -4.414062 L 5.046875 -4.414062 Z M 5.046875 -5.386719 "/></g></g></g><g fill="#c9a948" fill-opacity="1"><g transform="translate(193.606444, 259.099748)"><g><path d="M 3.695312 -4.414062 L 3.695312 -5.386719 L 0.46875 -5.386719 L 0.46875 -4.414062 L 1.464844 -4.414062 L 1.464844 -0.980469 L 0.46875 -0.980469 L 0.46875 0 L 3.695312 0 L 3.695312 -0.980469 L 2.699219 -0.980469 L 2.699219 -4.414062 Z M 3.695312 -4.414062 "/></g></g></g><g fill="#c9a948" fill-opacity="1"><g transform="translate(201.335032, 259.099748)"><g><path d="M 3.207031 0.136719 C 5.273438 0.136719 6.042969 -1.207031 6.042969 -2.691406 C 6.042969 -4.148438 5.273438 -5.523438 3.207031 -5.523438 C 1.140625 -5.523438 0.363281 -4.15625 0.363281 -2.691406 C 0.363281 -1.199219 1.140625 0.136719 3.207031 0.136719 Z M 1.652344 -2.691406 C 1.652344 -3.878906 2.023438 -4.519531 3.207031 -4.519531 C 4.390625 -4.519531 4.761719 -3.878906 4.761719 -2.691406 C 4.761719 -1.515625 4.390625 -0.875 3.207031 -0.875 C 2.023438 -0.875 1.652344 -1.515625 1.652344 -2.691406 Z M 1.652344 -2.691406 "/></g></g></g><g fill="#c9a948" fill-opacity="1"><g transform="translate(211.30767, 259.099748)"><g><path d="M 4.503906 -5.386719 L 4.503906 -0.875 C 4.414062 -1.148438 4.308594 -1.425781 4.210938 -1.652344 L 2.511719 -5.386719 L 0.46875 -5.386719 L 0.46875 0 L 1.652344 0 L 1.652344 -4.503906 C 1.734375 -4.230469 1.839844 -3.953125 1.960938 -3.679688 L 3.644531 0 L 5.6875 0 L 5.6875 -5.386719 Z M 4.503906 -5.386719 "/></g></g></g><g fill="#c9a948" fill-opacity="1"><g transform="translate(221.029175, 259.099748)"><g><path d="M 0.316406 -1.773438 C 0.355469 -0.792969 0.964844 0.136719 2.738281 0.136719 C 4.421875 0.136719 5.078125 -0.550781 5.078125 -1.613281 C 5.078125 -2.550781 4.527344 -3.070312 3.433594 -3.191406 L 2.308594 -3.328125 C 1.863281 -3.378906 1.675781 -3.613281 1.675781 -3.929688 C 1.675781 -4.351562 2.023438 -4.617188 2.679688 -4.617188 C 3.394531 -4.617188 3.75 -4.292969 3.816406 -3.792969 L 5.023438 -3.792969 C 4.957031 -4.746094 4.292969 -5.523438 2.679688 -5.523438 C 1.167969 -5.523438 0.4375 -4.828125 0.4375 -3.855469 C 0.4375 -2.964844 0.972656 -2.4375 1.929688 -2.324219 L 3.117188 -2.171875 C 3.597656 -2.105469 3.839844 -1.894531 3.839844 -1.492188 C 3.839844 -1.0625 3.574219 -0.777344 2.753906 -0.777344 C 1.902344 -0.777344 1.546875 -1.199219 1.515625 -1.773438 Z M 0.316406 -1.773438 "/></g></g></g><g fill="#000000" fill-opacity="1"><g transform="translate(52.329297, 242.976781)"><g><path d="M 13.105469 0.5625 C 21.546875 0.5625 24.691406 -4.929688 24.691406 -10.988281 C 24.691406 -16.945312 21.546875 -22.574219 13.105469 -22.574219 C 4.667969 -22.574219 1.488281 -16.980469 1.488281 -10.988281 C 1.488281 -4.898438 4.667969 0.5625 13.105469 0.5625 Z M 6.75 -10.988281 C 6.75 -15.855469 8.273438 -18.46875 13.105469 -18.46875 C 17.9375 -18.46875 19.460938 -15.855469 19.460938 -10.988281 C 19.460938 -6.1875 17.9375 -3.574219 13.105469 -3.574219 C 8.273438 -3.574219 6.75 -6.1875 6.75 -10.988281 Z M 6.75 -10.988281 "/></g></g></g><g fill="#000000" fill-opacity="1"><g transform="translate(81.584908, 242.976781)"><g><path d="M 19.097656 0 L 24.160156 0 L 16.417969 -22.011719 L 8.738281 -22.011719 L 0.992188 0 L 6.058594 0 L 7.644531 -4.5 L 17.507812 -4.5 Z M 9.003906 -8.375 L 12.578125 -18.535156 L 16.152344 -8.375 Z M 9.003906 -8.375 "/></g></g></g><g fill="#000000" fill-opacity="1"><g transform="translate(109.781518, 242.976781)"><g><path d="M 13.835938 -12.710938 L 22.339844 -22.011719 L 15.789062 -22.011719 L 6.949219 -11.648438 L 6.949219 -22.011719 L 1.917969 -22.011719 L 1.917969 0 L 6.949219 0 L 6.949219 -5.195312 L 10.457031 -9.035156 L 16.484375 0 L 22.507812 0 L 22.507812 -0.265625 Z M 13.835938 -12.710938 "/></g></g></g><g fill="#000000" fill-opacity="1"><g transform="translate(136.356534, 242.976781)"><g/></g></g><g fill="#000000" fill-opacity="1"><g transform="translate(147.80768, 242.976781)"><g><path d="M 20.621094 -22.011719 L 1.09375 -22.011719 L 1.09375 -18.039062 L 8.339844 -18.039062 L 8.339844 0 L 13.371094 0 L 13.371094 -18.039062 L 20.621094 -18.039062 Z M 20.621094 -22.011719 "/></g></g></g><g fill="#000000" fill-opacity="1"><g transform="translate(172.595639, 242.976781)"><g><path d="M 20.222656 -5.363281 C 20.222656 -8.539062 18.46875 -9.664062 16.21875 -10.226562 C 18.832031 -10.789062 20.816406 -12.875 20.816406 -15.984375 C 20.816406 -19.5625 18.402344 -22.011719 13.535156 -22.011719 L 1.917969 -22.011719 L 1.917969 0 L 6.984375 0 L 6.984375 -8.507812 L 11.519531 -8.507812 C 13.703125 -8.507812 15.191406 -7.445312 15.191406 -4.964844 L 15.191406 -3.804688 C 15.191406 -1.984375 15.355469 -0.792969 15.621094 0 L 20.652344 0 C 20.421875 -1.058594 20.222656 -2.050781 20.222656 -3.871094 Z M 12.410156 -12.113281 L 6.984375 -12.113281 L 6.984375 -18.105469 L 12.410156 -18.105469 C 14.597656 -18.105469 15.554688 -17.113281 15.554688 -15.257812 C 15.554688 -13.207031 14.695312 -12.113281 12.410156 -12.113281 Z M 12.410156 -12.113281 "/></g></g></g><g fill="#000000" fill-opacity="1"><g transform="translate(198.01237, 242.976781)"><g><path d="M 1.820312 -8.242188 C 1.820312 -2.480469 5.128906 0.53125 11.714844 0.53125 C 18.304688 0.53125 21.578125 -2.515625 21.578125 -8.242188 L 21.578125 -22.011719 L 16.582031 -22.011719 L 16.582031 -8.9375 C 16.582031 -4.667969 14.960938 -3.574219 11.714844 -3.574219 C 8.472656 -3.574219 6.851562 -4.667969 6.851562 -8.9375 L 6.851562 -22.011719 L 1.820312 -22.011719 Z M 1.820312 -8.242188 "/></g></g></g><g fill="#000000" fill-opacity="1"><g transform="translate(224.488091, 242.976781)"><g><path d="M 1.289062 -7.25 C 1.457031 -3.242188 3.9375 0.5625 11.1875 0.5625 C 18.070312 0.5625 20.753906 -2.25 20.753906 -6.585938 C 20.753906 -10.425781 18.5 -12.542969 14.035156 -13.039062 L 9.433594 -13.601562 C 7.613281 -13.800781 6.851562 -14.761719 6.851562 -16.050781 C 6.851562 -17.773438 8.273438 -18.867188 10.957031 -18.867188 C 13.867188 -18.867188 15.324219 -17.542969 15.589844 -15.488281 L 20.519531 -15.488281 C 20.253906 -19.394531 17.542969 -22.574219 10.957031 -22.574219 C 4.765625 -22.574219 1.789062 -19.726562 1.789062 -15.753906 C 1.789062 -12.113281 3.972656 -9.960938 7.878906 -9.5 L 12.742188 -8.871094 C 14.695312 -8.605469 15.6875 -7.746094 15.6875 -6.089844 C 15.6875 -4.335938 14.597656 -3.175781 11.253906 -3.175781 C 7.777344 -3.175781 6.320312 -4.898438 6.1875 -7.25 Z M 1.289062 -7.25 "/></g></g></g><g fill="#000000" fill-opacity="1"><g transform="translate(249.673171, 242.976781)"><g><path d="M 20.621094 -22.011719 L 1.09375 -22.011719 L 1.09375 -18.039062 L 8.339844 -18.039062 L 8.339844 0 L 13.371094 0 L 13.371094 -18.039062 L 20.621094 -18.039062 Z M 20.621094 -22.011719 "/></g></g></g><g fill="#000000" fill-opacity="1"><g transform="translate(274.461118, 242.976781)"><g><path d="M 6.949219 -4.003906 L 6.949219 -9.367188 L 18.203125 -9.367188 L 18.203125 -13.105469 L 6.949219 -13.105469 L 6.949219 -18.039062 L 19.195312 -18.039062 L 19.195312 -22.011719 L 1.917969 -22.011719 L 1.917969 0 L 19.296875 0 L 19.296875 -4.003906 Z M 6.949219 -4.003906 "/></g></g></g><g fill="#000000" fill-opacity="1"><g transform="translate(298.487918, 242.976781)"><g><path d="M 12.511719 -22.011719 L 1.917969 -22.011719 L 1.917969 0 L 12.511719 0 C 19.660156 0 22.902344 -5.230469 22.902344 -11.054688 C 22.902344 -16.847656 19.660156 -22.011719 12.511719 -22.011719 Z M 11.386719 -4.003906 L 6.949219 -4.003906 L 6.949219 -18.039062 L 11.386719 -18.039062 C 15.855469 -18.039062 17.675781 -15.753906 17.675781 -11.054688 C 17.675781 -6.386719 15.886719 -4.003906 11.386719 -4.003906 Z M 11.386719 -4.003906 "/></g></g></g></svg>